<?xml version="1.0" encoding="UTF-8"?>
<svg version="1.1" xmlns="http://www.w3.org/2000/svg" width="768" height="768">
<path d="M0 0 C1.21478027 0.20399414 2.42956055 0.40798828 3.68115234 0.61816406 C41.265723 7.04359645 77.22497451 18.3774592 111.08154297 36.01269531 C112.98129158 36.990372 114.89586676 37.93112624 116.81640625 38.8671875 C135.66275066 48.232048 153.72551326 60.69989939 170 74 C170.91910156 74.72960937 171.83820312 75.45921875 172.78515625 76.2109375 C179.27886942 81.41686789 185.41855444 86.96319645 191.50927734 92.62695312 C193.91643263 94.84409058 196.3702413 97.00917897 198.8125 99.1875 C202.50198946 102.54062575 205.88092561 105.95644218 209.08203125 109.7734375 C211.02168369 112.02517252 213.05163972 114.17441234 215.1003418 116.32666016 C222.73433287 124.39216425 229.41406901 133.06974281 236 142 C236.44585449 142.59925293 236.89170898 143.19850586 237.35107422 143.81591797 C293.84388138 219.94328786 316.79714485 317.44800957 303 411 C293.00907635 472.99618494 268.7364132 532.02906824 229 581 C227.90171875 582.38445312 227.90171875 582.38445312 226.78125 583.796875 C221.57602992 590.28507186 216.03361212 596.42198646 210.37304688 602.50927734 C208.15590942 604.91643263 205.99082103 607.3702413 203.8125 609.8125 C200.45937425 613.50198946 197.04355782 616.88092561 193.2265625 620.08203125 C190.97482748 622.02168369 188.82558766 624.05163972 186.67333984 626.1003418 C178.60783575 633.73433287 169.93025719 640.41406901 161 647 C160.40074707 647.44585449 159.80149414 647.89170898 159.18408203 648.35107422 C113.44726453 682.29157702 60.57461694 703.60382709 4.625 713.25 C3.7477124 713.40138428 2.8704248 713.55276855 1.96655273 713.70874023 C-16.5190394 716.69050485 -34.8620519 717.37316045 -53.5625 717.3125 C-55.35556076 717.30926727 -55.35556076 717.30926727 -57.18484497 717.30596924 C-74.31003934 717.25639288 -91.08960122 716.94082404 -108 714 C-109.19882812 713.80132324 -110.39765625 713.60264648 -111.6328125 713.39794922 C-145.5010728 707.68909474 -177.98818755 697.76893912 -209 683 C-209.88155762 682.58379395 -210.76311523 682.16758789 -211.67138672 681.73876953 C-245.42530452 665.70369719 -278.04564231 643.72453673 -304.18359375 616.81640625 C-306.05678014 614.87108115 -306.05678014 614.87108115 -308.625 612.9375 C-311.51363042 610.58098571 -313.77290704 607.8934021 -316.1875 605.0625 C-317.84681749 603.17431113 -319.56541186 601.43006635 -321.375 599.6875 C-325.46620555 595.64145125 -329.05039364 591.23628936 -332.62353516 586.73144531 C-333.59786628 585.50584114 -334.57721459 584.28421777 -335.56005859 583.06542969 C-353.15888815 561.2225094 -367.99921459 537.35659323 -380 512 C-380.35271973 511.26265625 -380.70543945 510.5253125 -381.06884766 509.765625 C-396.02303669 478.31367383 -405.24645753 445.26220906 -411 411 C-411.18079102 409.96439941 -411.36158203 408.92879883 -411.54785156 407.86181641 C-417.13652153 374.45756939 -416.82109694 336.34419791 -411 303 C-410.79600586 301.78521973 -410.59201172 300.57043945 -410.38183594 299.31884766 C-403.69104729 260.18211667 -391.50276068 223.15524528 -373 188 C-372.41943848 186.87875732 -372.41943848 186.87875732 -371.82714844 185.73486328 C-362.06476768 166.9589862 -350.25115995 149.48931168 -337 133 C-336.26652344 132.07445312 -335.53304687 131.14890625 -334.77734375 130.1953125 C-329.57056537 123.71209286 -324.03169544 117.57595238 -318.37304688 111.49072266 C-316.15590942 109.08356737 -313.99082103 106.6297587 -311.8125 104.1875 C-308.45937425 100.49801054 -305.04355782 97.11907439 -301.2265625 93.91796875 C-298.97482748 91.97831631 -296.82558766 89.94836028 -294.67333984 87.8996582 C-286.60783575 80.26566713 -277.93025719 73.58593099 -269 67 C-268.40074707 66.55414551 -267.80149414 66.10829102 -267.18408203 65.64892578 C-220.3601421 30.90168819 -165.50467587 8.98755498 -108 0 C-106.54907959 -0.24556641 -106.54907959 -0.24556641 -105.06884766 -0.49609375 C-71.53667295 -6.03425193 -33.4717442 -5.84336346 0 0 Z " fill="#43A047" transform="translate(438,27)"/>
<path d="M0 0 C44.92125 -0.0928125 44.92125 -0.0928125 90.75 -0.1875 C104.88602051 -0.22846802 104.88602051 -0.22846802 119.30761719 -0.27026367 C130.89697266 -0.28381348 130.89697266 -0.28381348 136.3381958 -0.28633118 C140.10403852 -0.2891039 143.86975183 -0.30025652 147.63555908 -0.31672668 C152.463805 -0.33755837 157.29186722 -0.34342726 162.1201539 -0.33921683 C163.87667198 -0.34009508 165.6331976 -0.34589158 167.38967657 -0.35764539 C197.7794201 -0.5512831 227.09407031 5.71809951 249.6875 27.3125 C270.73327474 49.29281181 278.77612382 75.31988997 278.3046875 105.25 C277.53022408 128.21508053 267.77274037 151.34686081 251.171875 167.3515625 C243.83092466 173.76666955 234.96686499 178.32128616 226 182 C227.45019531 182.70962891 227.45019531 182.70962891 228.9296875 183.43359375 C237.36513169 187.67357439 244.36693587 192.15457789 251 199 C251.57105469 199.56203125 252.14210938 200.1240625 252.73046875 200.703125 C260.36569283 208.78978907 263.90047765 219.30505928 266 230 C266.25378418 231.27109619 266.50756836 232.54219238 266.76904297 233.85180664 C268.69591454 244.46076413 269.2887527 254.9499209 269.37109375 265.71484375 C269.3766371 266.40949863 269.38218044 267.10415352 269.38789177 267.81985855 C269.42853353 273.59373094 269.43888399 279.36759836 269.43664551 285.14160156 C269.43496484 289.47917662 269.449006 293.81610357 269.48512459 298.15353584 C269.4957254 300.14562354 269.48391489 302.13779161 269.47129822 304.12986755 C269.55604401 314.56576112 271.0023343 325.76745212 278 334 C279.93675435 335.78410376 281.91207094 337.38660027 284 339 C284 341.97 284 344.94 284 348 C257.27 348 230.54 348 203 348 C198.35206656 330.5702496 195.97761966 315.78017261 195.60546875 297.92578125 C195.55551422 295.90365922 195.50304398 293.8816111 195.45055866 291.85955334 C195.3228482 286.93726206 195.19989474 282.01501101 195.10131836 277.09204102 C195.26740361 248.63757439 195.26740361 248.63757439 183.875 223.3125 C169.14299352 211.46284261 150.070312 211.70631457 132.1328125 211.5859375 C130.55850314 211.56895038 128.98420256 211.55112821 127.40991211 211.5324707 C121.64837516 211.46992152 115.88667336 211.42337889 110.125 211.375 C90.758125 211.189375 90.758125 211.189375 71 211 C71 256.21 71 301.42 71 348 C47.57 348 24.14 348 0 348 C0 233.16 0 118.32 0 0 Z " fill="#FEFEFE" transform="translate(254,210)"/>
<path d="M0 0 C14.9325 -0.04125 29.865 -0.0825 45.25 -0.125 C49.94379883 -0.14320801 54.63759766 -0.16141602 59.47363281 -0.18017578 C65.25927734 -0.18920898 65.25927734 -0.18920898 67.97821045 -0.19088745 C69.85435946 -0.19393417 71.73050485 -0.20091686 73.60662842 -0.21115112 C91.95258607 -0.30611978 109.80612051 -0.17158876 123.8046875 13.421875 C134.57228295 26.06709386 134.88128395 42.20770638 134 58 C133.65075218 61.16942394 133.05956416 63.99689243 132 67 C131.74347656 67.7425 131.48695313 68.485 131.22265625 69.25 C127.79439539 77.96043103 121.66179686 85.21046387 113 89 C102.34625933 92.45779302 92.00310285 94.16289099 80.83007812 94.11352539 C79.93701714 94.11364593 79.04395615 94.11376646 78.1238327 94.11389065 C75.2596123 94.11314979 72.39545862 94.10555959 69.53125 94.09765625 C67.75227896 94.09618426 65.97330749 94.09516514 64.19433594 94.09460449 C57.62955065 94.08938135 51.06477465 94.07542008 44.5 94.0625 C29.815 94.041875 15.13 94.02125 0 94 C0 62.98 0 31.96 0 0 Z " fill="#44A048" transform="translate(325,270)"/>
<path d="M0 0 C0.66 0.33 1.32 0.66 2 1 C-6.58 9.58 -15.16 18.16 -24 27 C-24.66 26.67 -25.32 26.34 -26 26 C-14.08687556 12.79628708 -14.08687556 12.79628708 -7.7578125 7.5 C-5.00987044 5.15508944 -2.52156125 2.58460028 0 0 Z " fill="#73BD75" transform="translate(145,113)"/>
</svg>
