<?xml version="1.0" encoding="UTF-8"?>
<svg version="1.1" xmlns="http://www.w3.org/2000/svg" width="512" height="512">
<path d="M0 0 C168.96 0 337.92 0 512 0 C512 168.96 512 337.92 512 512 C343.04 512 174.08 512 0 512 C0 343.04 0 174.08 0 0 Z " fill="#61D1A1" transform="translate(0,0)"/>
<path d="M0 0 C0.89074219 0.44085938 1.78148437 0.88171875 2.69921875 1.3359375 C39.74754059 20.46788116 62.64093871 58.48719983 75 97 C77.06892729 103.92337301 78.63814206 110.9071603 80 118 C80.16226074 118.79325684 80.32452148 119.58651367 80.49169922 120.40380859 C85.9216438 147.82250706 84.99728365 178.81140131 79 206 C78.78569336 206.98693848 78.57138672 207.97387695 78.35058594 208.99072266 C69.24451565 249.67643264 47.54892036 290.13090283 11.90991211 313.43139648 C-12.16605291 328.55662467 -40.16537253 335.05813499 -68.18408203 328.76586914 C-101.87681215 320.62801306 -128.8308582 297.10563657 -146.75732422 268.0703125 C-159.16827738 247.39351824 -167.07827793 225.57077766 -172 202 C-172.17934082 201.15550293 -172.35868164 200.31100586 -172.54345703 199.44091797 C-177.71248335 173.73951304 -177.28843216 143.63212777 -172 118 C-171.82839355 117.13503906 -171.65678711 116.27007812 -171.47998047 115.37890625 C-165.26569233 84.76840025 -152.34466264 55.82204112 -132 32 C-131.29230469 31.16984375 -130.58460938 30.3396875 -129.85546875 29.484375 C-112.84940855 10.06589645 -92.01208309 -2.74213067 -67 -9 C-66.03449219 -9.2475 -65.06898438 -9.495 -64.07421875 -9.75 C-42.98750157 -14.35771969 -18.92692314 -9.70465924 0 0 Z " fill="#62D1A2" transform="translate(302,96)"/>
<path d="M0 0 C7.91110425 -0.11345463 15.82156451 -0.2049737 23.73326683 -0.25906086 C27.40793726 -0.28503438 31.08201705 -0.32020304 34.75634766 -0.37719727 C38.30960425 -0.43196167 41.86229673 -0.46151236 45.41594315 -0.47438622 C47.41553628 -0.48797276 49.41490589 -0.52693404 51.41415405 -0.56648254 C61.36025434 -0.56951044 68.32664381 1.56314319 75.8125 8.1875 C83.20603196 16.1913471 86.3973172 26.59160609 86.3125 37.3125 C86.30686035 38.06015625 86.3012207 38.8078125 86.29541016 39.578125 C86.06523721 50.09771214 82.98839561 59.18813306 75.27734375 66.671875 C73.89516679 67.83512558 72.45349042 68.92718564 71 70 C71.38671875 70.4640625 71.7734375 70.928125 72.171875 71.40625 C79.76392987 81.47887725 81.24303503 94.79371702 83 107 C85.64 107 88.28 107 91 107 C91 115.58 91 124.16 91 133 C81.43 133 71.86 133 62 133 C61.68546875 130.45667969 61.3709375 127.91335938 61.046875 125.29296875 C60.7288039 122.79362169 60.40635413 120.29487526 60.08349609 117.79614258 C59.863757 116.07731958 59.64847711 114.35791975 59.43798828 112.63793945 C58.33611483 96.64082369 58.33611483 96.64082369 51.06542969 83.28979492 C45.22682022 79.64376965 38.75653509 79.67565351 32 79 C32 88.9 32 98.8 32 109 C35.3 109 38.6 109 42 109 C42 116.92 42 124.84 42 133 C28.14 133 14.28 133 0 133 C0 125.08 0 117.16 0 109 C3.3 109 6.6 109 10 109 C10 80.95 10 52.9 10 24 C6.7 24 3.4 24 0 24 C0 16.08 0 8.16 0 0 Z " fill="#FDFEFE" transform="translate(210,239)"/>
<path d="M0 0 C0.89074219 0.44085938 1.78148437 0.88171875 2.69921875 1.3359375 C39.74754059 20.46788116 62.64093871 58.48719983 75 97 C77.06892729 103.92337301 78.63814206 110.9071603 80 118 C80.16226074 118.79325684 80.32452148 119.58651367 80.49169922 120.40380859 C85.9216438 147.82250706 84.99728365 178.81140131 79 206 C78.78569336 206.98693848 78.57138672 207.97387695 78.35058594 208.99072266 C69.24451565 249.67643264 47.54892036 290.13090283 11.90991211 313.43139648 C-12.16605291 328.55662467 -40.16537253 335.05813499 -68.18408203 328.76586914 C-101.87681215 320.62801306 -128.8308582 297.10563657 -146.75732422 268.0703125 C-159.16827738 247.39351824 -167.07827793 225.57077766 -172 202 C-172.17934082 201.15550293 -172.35868164 200.31100586 -172.54345703 199.44091797 C-177.71248335 173.73951304 -177.28843216 143.63212777 -172 118 C-171.82839355 117.13503906 -171.65678711 116.27007812 -171.47998047 115.37890625 C-165.26569233 84.76840025 -152.34466264 55.82204112 -132 32 C-131.29230469 31.16984375 -130.58460938 30.3396875 -129.85546875 29.484375 C-112.84940855 10.06589645 -92.01208309 -2.74213067 -67 -9 C-66.03449219 -9.2475 -65.06898438 -9.495 -64.07421875 -9.75 C-42.98750157 -14.35771969 -18.92692314 -9.70465924 0 0 Z M-113 24 C-113.80695313 24.67417969 -114.61390625 25.34835938 -115.4453125 26.04296875 C-148.02967135 54.08186061 -164.95839499 99.10039699 -168.53320312 141.0925293 C-172.1201041 191.48376832 -160.0719411 243.3898802 -126.9375 282.5 C-108.99090392 302.97607922 -83.77095131 319.75741961 -56 322 C-26.65869201 323.68373761 -1.26078205 315.30017299 21 296 C22.21042969 294.98873047 22.21042969 294.98873047 23.4453125 293.95703125 C56.66106629 265.37482305 73.26578927 219.57639423 76.72265625 176.83203125 C79.99530135 126.36219774 67.25951622 74.37764309 33.42358398 35.77270508 C14.71765776 15.05355773 -10.80178479 -0.48186216 -39.16552734 -2.12548828 C-67.31257617 -3.30694002 -91.69668039 5.52995017 -113 24 Z " fill="#4F638D" transform="translate(302,96)"/>
<path d="M0 0 C36.87759747 28.52356622 57.6769604 71.9366572 65.61767578 117.16040039 C65.93671875 118.92577148 65.93671875 118.92577148 66.26220703 120.72680664 C74.87406232 172.212071 64.46192689 231.85507504 34.67260742 275.17822266 C32.72256675 277.89693725 30.68701952 280.53075262 28.61767578 283.16040039 C27.90353516 284.0949707 27.18939453 285.02954102 26.45361328 285.99243164 C7.08888558 310.60324011 -19.91966902 330.086254 -51.49560547 334.65258789 C-82.262241 338.2949045 -111.13819905 330.56943186 -135.60888672 311.44555664 C-140.005709 307.82282279 -144.23915734 304.06995587 -148.38232422 300.16040039 C-149.10806641 299.49911133 -149.83380859 298.83782227 -150.58154297 298.15649414 C-181.99884316 268.43132861 -198.19474733 222.23094032 -202.38232422 180.16040039 C-202.49318359 179.08790039 -202.60404297 178.01540039 -202.71826172 176.91040039 C-205.52487888 144.74808477 -201.58785628 112.74403296 -191.38232422 82.16040039 C-191.16382813 81.48380371 -190.94533203 80.80720703 -190.72021484 80.11010742 C-184.73796285 61.77220421 -175.29754011 44.30182922 -163.38232422 29.16040039 C-162.66818359 28.22583008 -161.95404297 27.29125977 -161.21826172 26.32836914 C-121.29649988 -24.4085609 -53.48594492 -39.76306417 0 0 Z M-137.38232422 12.16040039 C-138.62755859 13.22387695 -138.62755859 13.22387695 -139.89794922 14.30883789 C-169.06921034 39.81132078 -186.16220689 76.55652608 -193.38232422 114.16040039 C-193.54458496 114.95365723 -193.7068457 115.74691406 -193.87402344 116.56420898 C-199.30396801 143.98290745 -198.37960787 174.9718017 -192.38232422 202.16040039 C-192.16801758 203.14733887 -191.95371094 204.13427734 -191.73291016 205.15112305 C-182.61571708 245.88652938 -160.91941474 286.21015292 -125.30322266 309.58959961 C-113.79241411 316.84286606 -101.63394618 322.07106521 -88.38232422 325.16040039 C-87.03847656 325.4968457 -87.03847656 325.4968457 -85.66748047 325.84008789 C-73.19162087 328.5791488 -59.79595678 327.76666063 -47.38232422 325.16040039 C-46.23763672 324.92708008 -45.09294922 324.69375977 -43.91357422 324.45336914 C-11.40735613 316.8477476 14.54693206 293.87204873 32.14501953 266.22290039 C45.23398879 245.02282314 53.53392302 222.50716444 58.61767578 198.16040039 C58.7970166 197.31590332 58.97635742 196.47140625 59.16113281 195.60131836 C64.33015913 169.89991343 63.90610794 139.79252816 58.61767578 114.16040039 C58.44606934 113.29543945 58.27446289 112.43047852 58.09765625 111.53930664 C49.69106395 70.12989043 28.09054213 28.175903 -7.60888672 3.97290039 C-49.68209817 -22.53623523 -99.42826049 -20.82652077 -137.38232422 12.16040039 Z " fill="#61CCA0" transform="translate(323.38232421875,99.839599609375)"/>
<path d="M0 0 C0.76570312 0.66386719 1.53140625 1.32773438 2.3203125 2.01171875 C3.12726563 2.68589844 3.93421875 3.36007813 4.765625 4.0546875 C37.34998385 32.09357936 54.27870749 77.11211574 57.85351562 119.10424805 C61.4404166 169.49548707 49.3922536 221.40159895 16.2578125 260.51171875 C-2.21199714 281.58475587 -27.277866 297.54066876 -55.6796875 300.01171875 C-84.62288607 301.68892327 -109.73549967 293.03740348 -131.6796875 274.01171875 C-132.48664063 273.33753906 -133.29359375 272.66335938 -134.125 271.96875 C-167.34075379 243.3865418 -183.94547677 197.58811298 -187.40234375 154.84375 C-190.67498885 104.37391649 -177.93920372 52.38936184 -144.10327148 13.78442383 C-105.87382565 -28.55945757 -44.78628227 -37.61752091 0 0 Z M-139.8046875 20.19921875 C-160.84464927 44.26920737 -172.90394169 73.82886863 -178.6796875 105.01171875 C-178.87667236 106.04232422 -178.87667236 106.04232422 -179.07763672 107.09375 C-187.24822071 152.10644832 -176.89126847 202.93693878 -151.43701172 240.86328125 C-148.70218588 244.73698454 -145.74270072 248.39051476 -142.6796875 252.01171875 C-142.25606934 252.51896484 -141.83245117 253.02621094 -141.39599609 253.54882812 C-128.14170977 269.28050456 -110.58941971 282.20593528 -90.6796875 288.01171875 C-89.79410156 288.30820312 -88.90851563 288.6046875 -87.99609375 288.91015625 C-71.65582169 293.64080606 -52.64764189 292.53511677 -36.6796875 287.01171875 C-35.74189453 286.69823486 -35.74189453 286.69823486 -34.78515625 286.37841797 C-3.12621334 275.61856848 19.36625656 249.2460026 33.96484375 220.078125 C40.46616623 206.48590587 45.47781497 191.81254526 48.3203125 177.01171875 C48.46839355 176.25648926 48.61647461 175.50125977 48.76904297 174.72314453 C57.34786776 128.83705155 49.79545981 77.16876288 23.88134766 37.82714844 C20.57240669 33.04890222 17.02422278 28.48875751 13.3203125 24.01171875 C12.86543457 23.4590332 12.41055664 22.90634766 11.94189453 22.33691406 C-3.9620955 3.31255771 -27.54038845 -12.34203924 -52.6796875 -14.98828125 C-87.7382347 -16.85030359 -115.57767429 -5.33114643 -139.8046875 20.19921875 Z " fill="#61CDA1" transform="translate(320.6796875,117.98828125)"/>
<path d="M0 0 C36.87759747 28.52356622 57.6769604 71.9366572 65.61767578 117.16040039 C65.93671875 118.92577148 65.93671875 118.92577148 66.26220703 120.72680664 C74.87406232 172.212071 64.46192689 231.85507504 34.67260742 275.17822266 C32.72256675 277.89693725 30.68701952 280.53075262 28.61767578 283.16040039 C27.90353516 284.0949707 27.18939453 285.02954102 26.45361328 285.99243164 C7.08888558 310.60324011 -19.91966902 330.086254 -51.49560547 334.65258789 C-82.262241 338.2949045 -111.13819905 330.56943186 -135.60888672 311.44555664 C-140.005709 307.82282279 -144.23915734 304.06995587 -148.38232422 300.16040039 C-149.10806641 299.49911133 -149.83380859 298.83782227 -150.58154297 298.15649414 C-181.99884316 268.43132861 -198.19474733 222.23094032 -202.38232422 180.16040039 C-202.49318359 179.08790039 -202.60404297 178.01540039 -202.71826172 176.91040039 C-205.52487888 144.74808477 -201.58785628 112.74403296 -191.38232422 82.16040039 C-191.16382813 81.48380371 -190.94533203 80.80720703 -190.72021484 80.11010742 C-184.73796285 61.77220421 -175.29754011 44.30182922 -163.38232422 29.16040039 C-162.66818359 28.22583008 -161.95404297 27.29125977 -161.21826172 26.32836914 C-121.29649988 -24.4085609 -53.48594492 -39.76306417 0 0 Z M-155.05053711 23.22705078 C-191.72881085 65.37494336 -203.03937804 121.2509703 -200.19628906 175.72485352 C-198.01093497 205.18930182 -189.21832471 233.19937512 -175.38232422 259.16040039 C-175.06682617 259.76335937 -174.75132812 260.36631836 -174.42626953 260.98754883 C-169.37858413 270.57553571 -163.37001409 278.91844793 -156.38232422 287.16040039 C-155.9348584 287.68907715 -155.48739258 288.21775391 -155.02636719 288.76245117 C-134.8962593 312.24880374 -107.56595329 329.08643915 -76.38232422 332.16040039 C-44.86251 333.95799058 -15.9993021 322.70386881 7.61230469 301.89233398 C39.52290691 272.88703967 57.16508265 232.29455158 63.61767578 190.16040039 C63.92511719 188.28481445 63.92511719 188.28481445 64.23876953 186.37133789 C67.29779782 165.49601904 67.33661238 141.93150649 63.61767578 121.16040039 C63.48876953 120.40259277 63.35986328 119.64478516 63.22705078 118.86401367 C57.74990899 87.05982344 46.25624638 55.35109352 25.61767578 30.16040039 C25.17246582 29.61512695 24.72725586 29.06985352 24.26855469 28.50805664 C2.44787136 1.89783515 -24.69534107 -15.72419483 -59.38232422 -19.83959961 C-97.15152928 -21.85602534 -130.24310592 -4.47622012 -155.05053711 23.22705078 Z " fill="#50678E" transform="translate(323.38232421875,99.839599609375)"/>
<path d="M0 0 C1.7953736 1.55545131 3.56498022 3.14097242 5.3125 4.75 C5.8290918 5.22421387 6.34568359 5.69842773 6.87792969 6.18701172 C15.22305457 13.93534874 22.16556369 22.17129287 28.3125 31.75 C28.73128418 32.39952637 29.15006836 33.04905273 29.58154297 33.71826172 C46.50337147 60.32801324 56.48049496 92.16847551 57.3125 123.75 C57.33828125 124.43046387 57.3640625 125.11092773 57.390625 125.81201172 C59.01440253 171.85625326 46.74587393 219.07759186 15.75 254.0625 C14.27946372 255.63312514 12.80050778 257.19591727 11.3125 258.75 C10.61769531 259.50796875 9.92289063 260.2659375 9.20703125 261.046875 C-4.48068195 275.50748275 -22.60972177 284.7688042 -41.6875 289.75 C-42.61820313 289.99621094 -43.54890625 290.24242187 -44.5078125 290.49609375 C-68.99678942 295.92560698 -93.80513599 288.58471284 -114.6875 275.75 C-129.65784076 265.97143692 -142.10125103 252.76035714 -151.6875 237.75 C-152.10483398 237.10192383 -152.52216797 236.45384766 -152.95214844 235.78613281 C-166.67540087 214.20914924 -175.03733018 190.03915654 -178.6875 164.75 C-178.8419458 163.68894043 -178.8419458 163.68894043 -178.99951172 162.60644531 C-181.70857652 143.11658577 -181.75607916 123.19573143 -178.6875 103.75 C-178.56922852 102.98333008 -178.45095703 102.21666016 -178.32910156 101.42675781 C-175.20027971 81.96118673 -169.24277343 62.81529512 -159.67431641 45.53515625 C-158.68976303 43.75409384 -157.74014841 41.95741195 -156.79296875 40.15625 C-142.43723757 13.3819643 -118.09521479 -9.17954953 -88.9375 -18.6875 C-57.63351433 -27.17211988 -25.470114 -20.16847455 0 0 Z M-136.8125 16.9375 C-157.85246177 41.00748862 -169.91175419 70.56714988 -175.6875 101.75 C-175.88448486 102.78060547 -175.88448486 102.78060547 -176.08544922 103.83203125 C-184.25603321 148.84472957 -173.89908097 199.67522003 -148.44482422 237.6015625 C-145.70999838 241.47526579 -142.75051322 245.12879601 -139.6875 248.75 C-139.26388184 249.25724609 -138.84026367 249.76449219 -138.40380859 250.28710938 C-125.14952227 266.01878581 -107.59723221 278.94421653 -87.6875 284.75 C-86.80191406 285.04648437 -85.91632813 285.34296875 -85.00390625 285.6484375 C-68.66363419 290.37908731 -49.65545439 289.27339802 -33.6875 283.75 C-32.74970703 283.43651611 -32.74970703 283.43651611 -31.79296875 283.11669922 C-0.13402584 272.35684973 22.35844406 245.98428385 36.95703125 216.81640625 C43.45835373 203.22418712 48.47000247 188.55082651 51.3125 173.75 C51.46058105 172.99477051 51.60866211 172.23954102 51.76123047 171.46142578 C60.34005526 125.5753328 52.78764731 73.90704413 26.87353516 34.56542969 C23.56459419 29.78718347 20.01641028 25.22703876 16.3125 20.75 C15.85762207 20.19731445 15.40274414 19.64462891 14.93408203 19.07519531 C-0.969908 0.05083896 -24.54820095 -15.60375799 -49.6875 -18.25 C-84.7460472 -20.11202234 -112.58548679 -8.59286518 -136.8125 16.9375 Z " fill="#50678E" transform="translate(317.6875,121.25)"/>
<path d="M0 0 C2.0625 0.4375 2.0625 0.4375 4 1 C3.95875 2.093125 3.9175 3.18625 3.875 4.3125 C3.67925334 8.08892229 3.67925334 8.08892229 6 11 C7.010625 11.33 8.02125 11.66 9.0625 12 C10.5165625 12.495 10.5165625 12.495 12 13 C12.33 13.99 12.66 14.98 13 16 C16.06550592 15.01041003 16.06550592 15.01041003 19 13 C19.97873538 9.40614946 19.97873538 9.40614946 20 6 C19.34 6 18.68 6 18 6 C18 6.66 18 7.32 18 8 C16.68 7.67 15.36 7.34 14 7 C13.67 5.35 13.34 3.7 13 2 C14.32 1.34 15.64 0.68 17 0 C19 2 19 2 19 5 C19.845625 4.154375 20.69125 3.30875 21.5625 2.4375 C24.2823776 0.18167734 24.92164348 0.00398423 28.6875 -0.1875 C32 1 32 1 34 3.5625 C35.30993238 8.06539256 35.10590914 10.42890888 34 15 C31.42521157 18.46264651 30.28865775 18.92783556 26 20 C25.34 23.3 24.68 26.6 24 30 C25.32 30 26.64 30 28 30 C28.66 28.02 29.32 26.04 30 24 C31.32 24.33 32.64 24.66 34 25 C34.625 27.375 34.625 27.375 35 30 C33 32 33 32 30.4375 32.5 C29.2309375 32.7475 29.2309375 32.7475 28 33 C26.73589154 35.11322767 26.73589154 35.11322767 27.1875 38.25 C26.96168269 42.76634629 26.06260969 44.69560533 23 48 C20 48.625 20 48.625 17 48 C14.625 46.125 14.625 46.125 13 44 C13 43.34 13 42.68 13 42 C12.01 42 11.02 42 10 42 C9.67 43.32 9.34 44.64 9 46 C7.68 46 6.36 46 5 46 C4 45 4 45 3.9375 42.4375 C3.958125 41.633125 3.97875 40.82875 4 40 C6.475 39.505 6.475 39.505 9 39 C9 39.66 9 40.32 9 41 C9.99 40.505 9.99 40.505 11 40 C11.68928214 37.95034396 11.68928214 37.95034396 12.125 35.5625 C12.29257813 34.75941406 12.46015625 33.95632812 12.6328125 33.12890625 C13.05665582 31.03157343 13.05665582 31.03157343 13 29 C12.443125 29.350625 11.88625 29.70125 11.3125 30.0625 C8.46113217 31.21845993 6.91482778 30.80967438 4 30 C4 32.64 4 35.28 4 38 C1.525 38.495 1.525 38.495 -1 39 C-2.125 34.25 -2.125 34.25 -1 32 C-0.01 31.67 0.98 31.34 2 31 C1.34414811 27.39007621 1.34414811 27.39007621 0 24 C-0.44917947 19.05902585 0.77924875 16.3449481 3 12 C1.86695008 8.60085025 0.87481525 7.94745549 -2 6 C-1.125 1.125 -1.125 1.125 0 0 Z " fill="#F8FDFB" transform="translate(239,142)"/>
<path d="M0 0 C3.01125 -0.061875 6.0225 -0.12375 9.125 -0.1875 C10.06230957 -0.21481201 10.99961914 -0.24212402 11.96533203 -0.27026367 C17.07598263 -0.32088034 20.58790197 0.12906759 25 3 C29.36644383 7.72047982 30.29384362 11.40428823 30.22265625 17.6484375 C29.81634802 21.93962265 28.17318854 25.20934381 25.8125 28.8125 C18.30638382 33.73030025 8.33963431 32 0 32 C0 21.44 0 10.88 0 0 Z " fill="#63D2A3" transform="translate(242,263)"/>
<path d="M0 0 C2.35119399 3.52679099 2.21443452 5.02879485 2.125 9.1875 C2.10695313 10.27417969 2.08890625 11.36085937 2.0703125 12.48046875 C2.04710937 13.31191406 2.02390625 14.14335937 2 15 C3.32 15 4.64 15 6 15 C6.66 13.02 7.32 11.04 8 9 C9.32 9.33 10.64 9.66 12 10 C12.625 12.375 12.625 12.375 13 15 C11 17 11 17 8.4375 17.5 C7.2309375 17.7475 7.2309375 17.7475 6 18 C4.73589154 20.11322767 4.73589154 20.11322767 5.1875 23.25 C4.96168269 27.76634629 4.06260969 29.69560533 1 33 C-2 33.625 -2 33.625 -5 33 C-7.375 31.125 -7.375 31.125 -9 29 C-9 28.34 -9 27.68 -9 27 C-9.99 27 -10.98 27 -12 27 C-12.33 28.32 -12.66 29.64 -13 31 C-14.32 31 -15.64 31 -17 31 C-18 30 -18 30 -18.0625 27.4375 C-18.041875 26.633125 -18.02125 25.82875 -18 25 C-16.35 24.67 -14.7 24.34 -13 24 C-13 24.66 -13 25.32 -13 26 C-12.34 25.67 -11.68 25.34 -11 25 C-10.690625 24.05125 -10.38125 23.1025 -10.0625 22.125 C-9.05205433 19.15310098 -8.37002539 17.93911169 -6 16 C-6.50660156 15.61972656 -7.01320312 15.23945313 -7.53515625 14.84765625 C-9 13 -9 13 -8.99609375 10.37109375 C-8.81175781 9.40300781 -8.62742188 8.43492187 -8.4375 7.4375 C-8.27121094 6.46683594 -8.10492188 5.49617187 -7.93359375 4.49609375 C-7 2 -7 2 -5.09765625 0.66015625 C-3 0 -3 0 0 0 Z " fill="#F4FBF8" transform="translate(261,157)"/>
<path d="M0 0 C2.0625 0.4375 2.0625 0.4375 4 1 C3.95875 2.093125 3.9175 3.18625 3.875 4.3125 C3.67925334 8.08892229 3.67925334 8.08892229 6 11 C7.97888961 11.72693904 9.97954558 12.39816251 12 13 C13 14 13 14 13.09765625 16.50390625 C13.08605469 17.51324219 13.07445312 18.52257812 13.0625 19.5625 C13.05347656 20.57441406 13.04445312 21.58632812 13.03515625 22.62890625 C13.02355469 23.41136719 13.01195312 24.19382813 13 25 C12.01 24.67 11.02 24.34 10 24 C9.67 21.69 9.34 19.38 9 17 C8.01 17 7.02 17 6 17 C5.9175 18.11375 5.835 19.2275 5.75 20.375 C5 24 5 24 2.9375 25.4375 C2.298125 25.623125 1.65875 25.80875 1 26 C-0.41564834 23.16870331 -0.24224495 21.14918438 0 18 C0.98422146 15.99218823 1.98234073 13.99107248 3 12 C1.86695008 8.60085025 0.87481525 7.94745549 -2 6 C-1.125 1.125 -1.125 1.125 0 0 Z " fill="#80DAB3" transform="translate(239,142)"/>
<path d="M0 0 C0.33 0 0.66 0 1 0 C1 2.97 1 5.94 1 9 C1.66 9 2.32 9 3 9 C3.33 6.36 3.66 3.72 4 1 C5.875 0.375 5.875 0.375 8 0 C10.57734905 2.57734905 10 3.47045969 10 7 C10.92745649 9.73774618 10.92745649 9.73774618 12 12 C10 14 10 14 7.125 14.375 C4 14 4 14 1.625 12.125 C0 10 0 10 0 8 C-0.99 8 -1.98 8 -3 8 C-3.33 9.32 -3.66 10.64 -4 12 C-5.32 12 -6.64 12 -8 12 C-9 11 -9 11 -9.0625 8.4375 C-9.041875 7.633125 -9.02125 6.82875 -9 6 C-7.35 5.67 -5.7 5.34 -4 5 C-4 5.66 -4 6.32 -4 7 C-1.64214682 6.10664203 -1.64214682 6.10664203 -0.875 2.9375 C-0.58625 1.968125 -0.2975 0.99875 0 0 Z " fill="#F4FCF9" transform="translate(252,176)"/>
<path d="M0 0 C2.0625 0.4375 2.0625 0.4375 4 1 C4.12375 2.134375 4.2475 3.26875 4.375 4.4375 C4.58125 5.613125 4.7875 6.78875 5 8 C5.66 8.33 6.32 8.66 7 9 C7.33 8.34 7.66 7.68 8 7 C8.33 9.31 8.66 11.62 9 14 C9.99 14.33 10.98 14.66 12 15 C10.68 15.99 9.36 16.98 8 18 C7.67 16.35 7.34 14.7 7 13 C6.443125 13.350625 5.88625 13.70125 5.3125 14.0625 C2.46113217 15.21845993 0.91482778 14.80967438 -2 14 C-2 16.64 -2 19.28 -2 22 C-3.65 22.33 -5.3 22.66 -7 23 C-8.125 18.25 -8.125 18.25 -7 16 C-6.01 15.67 -5.02 15.34 -4 15 C-4.061875 13.824375 -4.061875 13.824375 -4.125 12.625 C-4 10 -4 10 -2 8 C-1.63239269 5.67182036 -1.29758419 3.3381615 -1 1 C-0.67 0.67 -0.34 0.34 0 0 Z " fill="#F7FCFA" transform="translate(245,158)"/>
<path d="M0 0 C2.59500704 3.89251056 1.86590203 5.5130531 1 10 C0.69096017 11.33917261 0.37057089 12.67653254 0 14 C-2.31 14.66 -4.62 15.32 -7 16 C-9.48451751 11.72110872 -8.84400475 8.59985924 -7.8984375 3.98828125 C-7 2 -7 2 -5.1015625 0.73046875 C-3 0 -3 0 0 0 Z " fill="#64D2A3" transform="translate(261,157)"/>
<path d="M0 0 C1.32 0.33 2.64 0.66 4 1 C4.66 3.31 5.32 5.62 6 8 C6.66 7.67 7.32 7.34 8 7 C7.9375 9.3125 7.9375 9.3125 7 12 C5.2984375 12.7115625 5.2984375 12.7115625 3.5625 13.4375 C-0.26715737 14.6430523 -0.26715737 14.6430523 -1.4375 18.1875 C-1.623125 19.115625 -1.80875 20.04375 -2 21 C-3.01727874 17.36686163 -3.65837207 13.75790722 -4 10 C-3.34 9.01 -2.68 8.02 -2 7 C-1.29187186 4.67891331 -0.61975848 2.34622853 0 0 Z " fill="#F7FCFA" transform="translate(265,147)"/>
<path d="M0 0 C2.5625 0.5 2.5625 0.5 4.9375 2.5625 C7.0191451 6.32547384 6.52836437 8.39507644 5.5625 12.5 C4.5725 11.84 3.5825 11.18 2.5625 10.5 C2.375 7.875 2.375 7.875 2.5625 5.5 C1.2425 5.17 -0.0775 4.84 -1.4375 4.5 C-2.0975 7.14 -2.7575 9.78 -3.4375 12.5 C-4.0975 12.5 -4.7575 12.5 -5.4375 12.5 C-5.51881463 11.06344146 -5.57683559 9.6255517 -5.625 8.1875 C-5.65980469 7.38699219 -5.69460937 6.58648437 -5.73046875 5.76171875 C-5.4375 3.5 -5.4375 3.5 -4.078125 1.73828125 C-2.4375 0.5 -2.4375 0.5 0 0 Z " fill="#6AD4A6" transform="translate(258.4375,172.5)"/>
<path d="M0 0 C2.5 0.375 2.5 0.375 4.25 1.4375 C6.12103302 4.33760118 6.31435814 6.97156595 6.5 10.375 C5.84 11.035 5.18 11.695 4.5 12.375 C3.08622659 9.73595629 2.12759865 7.30379371 1.5 4.375 C0.51 4.375 -0.48 4.375 -1.5 4.375 C-2.16 7.015 -2.82 9.655 -3.5 12.375 C-4.16 12.375 -4.82 12.375 -5.5 12.375 C-5.58131463 10.93844146 -5.63933559 9.5005517 -5.6875 8.0625 C-5.72230469 7.26199219 -5.75710938 6.46148437 -5.79296875 5.63671875 C-5.5 3.375 -5.5 3.375 -4.14453125 1.60546875 C-2.5 0.375 -2.5 0.375 0 0 Z " fill="#6AD4A6" transform="translate(266.5,143.625)"/>
<path d="M0 0 C2.0625 0.4375 2.0625 0.4375 4 1 C3.95875 2.093125 3.9175 3.18625 3.875 4.3125 C3.67925334 8.08892229 3.67925334 8.08892229 6 11 C9.05429073 12.21284876 9.05429073 12.21284876 12 13 C12 13.99 12 14.98 12 16 C11.34 15.34 10.68 14.68 10 14 C6.26703674 13.61713197 5.22373677 13.85084215 2 16 C2.185625 15.401875 2.37125 14.80375 2.5625 14.1875 C3.22093687 11.83591238 3.22093687 11.83591238 2 9 C0.00334686 7.31461399 0.00334686 7.31461399 -2 6 C-1.125 1.125 -1.125 1.125 0 0 Z " fill="#F3FBF8" transform="translate(239,142)"/>
<path d="M0 0 C0.66 0.33 1.32 0.66 2 1 C2.40729228 3.32156597 2.74438677 5.6568787 3 8 C0.36 8.66 -2.28 9.32 -5 10 C-5 11.98 -5 13.96 -5 16 C-5.66 16 -6.32 16 -7 16 C-7 13.69 -7 11.38 -7 9 C-5.5459375 8.443125 -5.5459375 8.443125 -4.0625 7.875 C-0.68859031 6.28947638 -0.68859031 6.28947638 -0.125 2.8125 C-0.08375 1.884375 -0.0425 0.95625 0 0 Z " fill="#DEF5EB" transform="translate(259,149)"/>
<path d="M0 0 C3.4375 1.1875 3.4375 1.1875 5.375 3.9375 C6.36122336 6.95418322 6.7140686 9.05305583 6.4375 12.1875 C6.169375 11.630625 5.90125 11.07375 5.625 10.5 C5.233125 9.736875 4.84125 8.97375 4.4375 8.1875 C4.004375 7.28 3.57125 6.3725 3.125 5.4375 C1.65123197 2.94011773 1.65123197 2.94011773 -1 2.75 C-3.55490622 3.1862035 -5.34313247 3.87231924 -7.5625 5.1875 C-5.2720446 1.43115315 -4.52012991 0.23790157 0 0 Z " fill="#E3F7EE" transform="translate(267.5625,141.8125)"/>
<path d="M0 0 C0.66 0.33 1.32 0.66 2 1 C2.72886734 3.7696959 3 6.12862585 3 9 C0.36 7.68 -2.28 6.36 -5 5 C-5 4.67 -5 4.34 -5 4 C-3.35 4 -1.7 4 0 4 C0 2.68 0 1.36 0 0 Z " fill="#D6F3E6" transform="translate(261,167)"/>
</svg>
