<?xml version="1.0" encoding="UTF-8"?>
<svg version="1.1" xmlns="http://www.w3.org/2000/svg" width="192" height="192">
<path d="M0 0 C63.36 0 126.72 0 192 0 C192 63.36 192 126.72 192 192 C128.64 192 65.28 192 0 192 C0 128.64 0 65.28 0 0 Z " fill="#61D1A1" transform="translate(0,0)"/>
<path d="M0 0 C9.1088031 7.11379147 14.76133362 15.35835716 19.21875 25.8828125 C20.07776202 28.32667315 20.07776202 28.32667315 21.3125 29.4375 C21.6425 28.4475 21.9725 27.4575 22.3125 26.4375 C23.91171045 29.93577286 24.62476575 32.58622238 24.3125 36.4375 C23.8175 37.4275 23.8175 37.4275 23.3125 38.4375 C23.54129223 40.03041192 23.77480867 41.62274884 24.02832031 43.21191406 C26.80195748 64.93397282 23.48278287 85.82586735 9.9921875 103.47265625 C1.78582569 113.02959485 -7.89446362 119.50235594 -20.6328125 120.71875 C-32.3511424 121.07839184 -41.44668587 117.62019559 -50.6875 110.4375 C-53.58506433 107.60303171 -56.17021477 104.61073706 -58.6875 101.4375 C-59.42097656 100.52226562 -60.15445313 99.60703125 -60.91015625 98.6640625 C-61.49667969 97.92929688 -62.08320312 97.19453125 -62.6875 96.4375 C-58.51781167 102.2523011 -54.37029275 108.02302088 -49.6875 113.4375 C-59.02335157 109.40093447 -64.98744019 98.4932396 -68.6875 89.4375 C-68.3575 88.4475 -68.0275 87.4575 -67.6875 86.4375 C-67.3575 86.7675 -67.0275 87.0975 -66.6875 87.4375 C-67.0484375 86.50035156 -67.409375 85.56320313 -67.78125 84.59765625 C-70.98160781 75.56208959 -72.15946925 67.21822196 -72.125 57.625 C-72.12242188 56.60092041 -72.11984375 55.57684082 -72.1171875 54.52172852 C-71.92265469 44.42466495 -70.83115365 34.6103337 -66.5625 25.375 C-66.25755615 24.70090088 -65.9526123 24.02680176 -65.63842773 23.33227539 C-58.9170457 9.01162347 -49.32698337 -0.54516753 -34.6875 -6.5625 C-22.30113981 -9.73602396 -10.46442239 -7.09773497 0 0 Z " fill="#63D1A2" transform="translate(119.6875,39.5625)"/>
<path d="M0 0 C3.54138618 -0.11681812 7.0822724 -0.187455 10.625 -0.25 C11.62402344 -0.28351563 12.62304688 -0.31703125 13.65234375 -0.3515625 C19.81527371 -0.43319071 23.29217986 -0.08011079 28 4 C28.8971875 4.7734375 28.8971875 4.7734375 29.8125 5.5625 C32.33454986 8.61550773 32.26549653 12.0639774 32.23046875 15.875 C31.85926489 19.29762542 30.48801481 21.90492921 29 25 C27.7875454 28.38247276 28.17007554 30.23339842 29.4375 33.5625 C30.48342062 36.3438046 31 37.98466645 31 41 C31.99 41 32.98 41 34 41 C34 43.97 34 46.94 34 50 C30.37 50 26.74 50 23 50 C22.81824219 48.87980469 22.63648437 47.75960937 22.44921875 46.60546875 C22.19594079 45.13270431 21.94199984 43.66005378 21.6875 42.1875 C21.56955078 41.44951172 21.45160156 40.71152344 21.33007812 39.95117188 C20.81609152 37.0385811 20.35758607 34.5390799 18.70703125 32.05078125 C16.60388526 30.62003019 16.60388526 30.62003019 12 30 C12 33.96 12 37.92 12 42 C12.99 42 13.98 42 15 42 C15 44.64 15 47.28 15 50 C10.05 50 5.1 50 0 50 C0 47.03 0 44.06 0 41 C0.99 41 1.98 41 3 41 C3 30.44 3 19.88 3 9 C2.01 9 1.02 9 0 9 C0 6.03 0 3.06 0 0 Z " fill="#F8FDFB" transform="translate(79,89)"/>
<path d="M0 0 C9.1088031 7.11379147 14.76133362 15.35835716 19.21875 25.8828125 C20.07776202 28.32667315 20.07776202 28.32667315 21.3125 29.4375 C21.6425 28.4475 21.9725 27.4575 22.3125 26.4375 C23.91171045 29.93577286 24.62476575 32.58622238 24.3125 36.4375 C23.8175 37.4275 23.8175 37.4275 23.3125 38.4375 C23.54129223 40.03041192 23.77480867 41.62274884 24.02832031 43.21191406 C26.80195748 64.93397282 23.48278287 85.82586735 9.9921875 103.47265625 C1.78582569 113.02959485 -7.89446362 119.50235594 -20.6328125 120.71875 C-32.3511424 121.07839184 -41.44668587 117.62019559 -50.6875 110.4375 C-53.58506433 107.60303171 -56.17021477 104.61073706 -58.6875 101.4375 C-59.42097656 100.52226562 -60.15445313 99.60703125 -60.91015625 98.6640625 C-61.49667969 97.92929688 -62.08320312 97.19453125 -62.6875 96.4375 C-58.51781167 102.2523011 -54.37029275 108.02302088 -49.6875 113.4375 C-59.02335157 109.40093447 -64.98744019 98.4932396 -68.6875 89.4375 C-68.3575 88.4475 -68.0275 87.4575 -67.6875 86.4375 C-67.3575 86.7675 -67.0275 87.0975 -66.6875 87.4375 C-67.0484375 86.50035156 -67.409375 85.56320313 -67.78125 84.59765625 C-70.98160781 75.56208959 -72.15946925 67.21822196 -72.125 57.625 C-72.12242188 56.60092041 -72.11984375 55.57684082 -72.1171875 54.52172852 C-71.92265469 44.42466495 -70.83115365 34.6103337 -66.5625 25.375 C-66.25755615 24.70090088 -65.9526123 24.02680176 -65.63842773 23.33227539 C-58.9170457 9.01162347 -49.32698337 -0.54516753 -34.6875 -6.5625 C-22.30113981 -9.73602396 -10.46442239 -7.09773497 0 0 Z M-56.03515625 12.17578125 C-67.93179515 28.45983308 -71.23770766 45.55863948 -69.6875 65.4375 C-69.40499907 67.11353166 -69.10212987 68.78917632 -68.6875 70.4375 C-68.3575 70.4375 -68.0275 70.4375 -67.6875 70.4375 C-67.69910156 69.2309375 -67.71070313 68.024375 -67.72265625 66.78125 C-67.73204335 65.16666823 -67.74114256 63.55208476 -67.75 61.9375 C-67.75837891 61.14601563 -67.76675781 60.35453125 -67.77539062 59.5390625 C-67.79641185 54.40988283 -67.42687287 49.51413894 -66.6875 44.4375 C-66.6875 53.4375 -66.6875 62.4375 -66.6875 71.4375 C-67.0175 71.4375 -67.3475 71.4375 -67.6875 71.4375 C-67.6875 83.62371997 -60.04617327 96.84812025 -51.6875 105.4375 C-42.74601327 113.67091319 -33.20154428 117.91074866 -21.046875 117.77734375 C-8.91487637 116.55003691 0.64279944 109.92450657 8.4375 100.9375 C20.95451522 84.4230348 24.01445872 64.69696043 22.3125 44.4375 C19.83830438 28.93876515 11.60919602 12.05445652 -1.1640625 2.60546875 C-20.31047528 -9.57591771 -41.67522655 -5.56295544 -56.03515625 12.17578125 Z " fill="#506A8E" transform="translate(119.6875,39.5625)"/>
<path d="M0 0 C12.58959343 9.12853682 20.69000768 23.90631136 24.03515625 38.94921875 C25.26995207 49.13345217 25.51907291 60.36815808 23.4609375 70.4609375 C22.8009375 71.1209375 22.1409375 71.7809375 21.4609375 72.4609375 C20.8009375 73.4509375 20.1409375 74.4409375 19.4609375 75.4609375 C19.61949219 74.21570313 19.77804688 72.97046875 19.94140625 71.6875 C22.20456229 51.11408506 21.48307634 30.76892151 8.390625 13.7734375 C2.19451421 6.51945413 -4.84907994 0.04945923 -14.5390625 -1.5390625 C-25.68717967 -2.28047295 -34.65771165 -1.56937355 -43.5 5.6171875 C-53.74121123 14.8774398 -59.54627361 24.99338748 -62.5390625 38.4609375 C-63.1990625 39.4509375 -63.8590625 40.4409375 -64.5390625 41.4609375 C-64.84610829 44.17510639 -65.05141072 46.80126453 -65.1640625 49.5234375 C-65.20200928 50.28261475 -65.23995605 51.04179199 -65.27905273 51.82397461 C-65.53960799 57.37362438 -65.62724879 62.90520106 -65.5390625 68.4609375 C-65.8690625 68.4609375 -66.1990625 68.4609375 -66.5390625 68.4609375 C-70.79843217 51.52819744 -67.47888086 32.29636797 -58.7265625 17.3984375 C-57.37094204 15.39151335 -55.97708806 13.40966372 -54.5390625 11.4609375 C-53.92160156 10.61917969 -53.30414063 9.77742188 -52.66796875 8.91015625 C-39.04991126 -7.93546579 -18.24067136 -11.0566531 0 0 Z " fill="#5AA499" transform="translate(117.5390625,41.5390625)"/>
<path d="M0 0 C9.7112286 7.34567292 18.8563815 17.72692485 21.46484375 29.92578125 C21.70623217 32.26361159 21.84960799 34.52659421 21.8125 36.875 C19.42448171 34.48698171 18.76888934 32.46117618 17.5625 29.3125 C15.23957967 23.61759853 12.49696107 18.78444941 8.8125 13.875 C8.37421875 13.26011719 7.9359375 12.64523438 7.484375 12.01171875 C1.30106163 3.99828676 -8.24027281 -1.46463576 -18.1875 -3.125 C-31.05846517 -4.33859698 -40.97249374 -0.94370404 -51.1875 6.875 C-62.88183543 16.98507609 -69.45169407 33.81651262 -71.1875 48.875 C-72.09248596 63.85105799 -71.23777438 76.76734828 -66.1875 90.875 C-65.81669857 92.53373301 -65.46588671 94.19828007 -65.1875 95.875 C-68.1875 92.125 -68.1875 92.125 -68.1875 89.875 C-68.8475 89.875 -69.5075 89.875 -70.1875 89.875 C-70.84205759 87.87783825 -71.4856943 85.87709613 -72.125 83.875 C-72.48464844 82.76125 -72.84429687 81.6475 -73.21484375 80.5 C-75.82484595 70.77276288 -75.39487009 60.85803989 -75.1875 50.875 C-75.17074219 50.00359375 -75.15398437 49.1321875 -75.13671875 48.234375 C-74.01064734 31.37547732 -64.40142551 14.02065214 -52.1875 2.875 C-48.67192318 0.20159479 -45.0804373 -2.04521158 -41.1875 -4.125 C-40.55714844 -4.48464844 -39.92679688 -4.84429688 -39.27734375 -5.21484375 C-27.03696388 -11.05256338 -10.72205068 -6.96686243 0 0 Z " fill="#59A198" transform="translate(120.1875,36.125)"/>
<path d="M0 0 C0.495 0.99 0.495 0.99 1 2 C1.66 2 2.32 2 3 2 C8.86608743 13.73217487 5.61206552 34.8353992 2 47 C-3.52403892 63.34483761 -13.09564836 78.02627579 -28.84375 86.03515625 C-37.85191379 90.06598316 -49.00968014 90.66508337 -58.52734375 88.01953125 C-71.37783455 82.85709675 -78.46192737 73.18109253 -86 62 C-85.67 61.34 -85.34 60.68 -85 60 C-84.40574219 60.845625 -83.81148437 61.69125 -83.19921875 62.5625 C-75.2338804 73.58292526 -65.89414547 82.62633155 -52 85 C-40.78547952 85.99286756 -30.426266 83.59329196 -21.22265625 76.9453125 C-9.28915847 66.50088035 -0.96760855 51.82085248 1 36 C1.73389182 23.98377119 1.25793694 11.96148736 0 0 Z " fill="#5AA399" transform="translate(142,74)"/>
<path d="M0 0 C2.45810464 3.03309987 4.02289251 6.07413019 5.625 9.625 C10.80730308 20.11756425 18.84074936 28.70230287 29.8125 33.13671875 C38.45576971 35.4776043 48.95834075 35.19564831 57 31 C69.25242564 23.67671111 75.22006129 12.52832459 81 0 C82.62608035 4.87824104 80.99435294 8.97217204 78.80859375 13.4296875 C71.95904118 25.41173859 62.91570825 34.55537275 49.40625 38.52734375 C37.99057999 40.7697075 28.32598736 38.07130888 18.75 31.75 C10.39786912 25.51233263 2.69927543 16.73617497 0.40625 6.296875 C0.16964937 4.20690278 0.06892434 2.10219247 0 0 Z " fill="#5AA299" transform="translate(55,118)"/>
<path d="M0 0 C0.33 0 0.66 0 1 0 C0.99214478 1.24704712 0.99214478 1.24704712 0.98413086 2.51928711 C0.96694711 5.64477272 0.95448144 8.77023401 0.94506836 11.89575195 C0.93764896 13.89731458 0.92493341 15.89885533 0.91210938 17.90039062 C0.89500391 24.69125925 1.06201996 31.27165501 2 38 C1.34 37.01 0.68 36.02 0 35 C1.55620275 42.78101375 4.78177257 49.79440901 8 57 C6.515 57.495 6.515 57.495 5 58 C8.65119902 63.70985379 12.48244546 68.94464135 17 74 C7.66414843 69.96343447 1.70005981 59.0557396 -2 50 C-1.67 49.01 -1.34 48.02 -1 47 C-0.67 47.33 -0.34 47.66 0 48 C-0.3609375 46.80761719 -0.721875 45.61523438 -1.09375 44.38671875 C-1.56271467 42.82037676 -2.03145289 41.25396695 -2.5 39.6875 C-2.73847656 38.90181641 -2.97695313 38.11613281 -3.22265625 37.30664062 C-3.44824219 36.54931641 -3.67382812 35.79199219 -3.90625 35.01171875 C-4.11572266 34.31522217 -4.32519531 33.61872559 -4.54101562 32.90112305 C-5 31 -5 31 -5 28 C-4.34 28 -3.68 28 -3 28 C-2.05172071 22.01793817 -1.67667684 16.09796497 -1.39453125 10.05273438 C-1.21455604 6.57424806 -0.92082845 3.3566434 0 0 Z " fill="#537B91" transform="translate(53,79)"/>
<path d="M0 0 C0.99 0.33 1.98 0.66 3 1 C3 1.99 3 2.98 3 4 C3.66 4 4.32 4 5 4 C5.33 2.68 5.66 1.36 6 0 C6.99 0.33 7.98 0.66 9 1 C10.32 1 11.64 1 13 1 C13.33 2.65 13.66 4.3 14 6 C12.02 6.99 12.02 6.99 10 8 C10.33 10.97 10.66 13.94 11 17 C7.846632 17.70074844 5.27275026 18 2 18 C2 17.01 2 16.02 2 15 C1.34 15 0.68 15 0 15 C0.185625 14.4225 0.37125 13.845 0.5625 13.25 C1.04607979 10.76301821 0.62300419 9.41414122 0 7 C0.33 6.01 0.66 5.02 1 4 C0.61067144 1.85744207 0.61067144 1.85744207 0 0 Z " fill="#91DFBE" transform="translate(89,53)"/>
<path d="M0 0 C6.23287671 -0.47945205 6.23287671 -0.47945205 9.5 1.5625 C11 4 11 4 11 7.625 C10 11 10 11 8.3125 12.4375 C6 13 6 13 0 13 C0 8.71 0 4.42 0 0 Z " fill="#6DD5A8" transform="translate(91,98)"/>
<path d="M0 0 C0.33 0.66 0.66 1.32 1 2 C0.07421875 4.3203125 0.07421875 4.3203125 -1.3125 7.125 C-2.94741639 10.56645385 -4.34433606 13.78178525 -5.1875 17.5 C-6 21 -6 21 -8 24 C-8.30704579 26.71416889 -8.51234822 29.34032703 -8.625 32.0625 C-8.66294678 32.82167725 -8.70089355 33.58085449 -8.73999023 34.36303711 C-9.00054549 39.91268688 -9.08818629 45.44426356 -9 51 C-9.33 51 -9.66 51 -10 51 C-13.70469575 36.27231608 -10.80083146 21.04243202 -6 7 C-5.34 7 -4.68 7 -4 7 C-2.68 4.69 -1.36 2.38 0 0 Z " fill="#5BAB9A" transform="translate(61,59)"/>
<path d="M0 0 C0.33 0 0.66 0 1 0 C1.08636719 1.24652344 1.17273437 2.49304688 1.26171875 3.77734375 C2.08082782 14.1332957 3.64596447 23.61827354 6.87890625 33.49609375 C7.78957819 36.34234018 8.49599315 39.06090389 9 42 C6 38.25 6 38.25 6 36 C5.34 36 4.68 36 4 36 C-0.26230783 23.88711588 -1.87002138 12.74491491 0 0 Z " fill="#5AA79A" transform="translate(46,90)"/>
<path d="M0 0 C3.02353837 2.62570438 4.80848613 4.24867636 5.8125 8.1875 C7.5631717 13.80807755 11.22713986 17.57222829 15 22 C16.33841013 23.66259252 17.67320711 25.32812196 19 27 C9.48733038 22.8869832 3.99556729 12.01499871 0 3 C0 2.01 0 1.02 0 0 Z " fill="#558894" transform="translate(51,126)"/>
<path d="M0 0 C2.97 0 5.94 0 9 0 C9 1.98 9 3.96 9 6 C6.69 6 4.38 6 2 6 C2 5.01 2 4.02 2 3 C1.34 3 0.68 3 0 3 C0 2.01 0 1.02 0 0 Z " fill="#93E0BF" transform="translate(89,65)"/>
<path d="M0 0 C2.25900493 2.25900493 2.34458029 2.94183075 2.6875 6 C2.77386719 6.70125 2.86023438 7.4025 2.94921875 8.125 C3 10 3 10 2 12 C2 12.99 2 13.98 2 15 C1.01 14.67 0.02 14.34 -1 14 C-1.66 10.37 -2.32 6.74 -3 3 C-2 3 -1 3 0 3 C0 2.01 0 1.02 0 0 Z " fill="#527690" transform="translate(141,66)"/>
<path d="M0 0 C0.99 0.33 1.98 0.66 3 1 C4.32 1 5.64 1 7 1 C7.33 2.65 7.66 4.3 8 6 C5.625 6.625 5.625 6.625 3 7 C2.34 6.34 1.68 5.68 1 5 C1.33 4.34 1.66 3.68 2 3 C1.34 3 0.68 3 0 3 C0 2.01 0 1.02 0 0 Z " fill="#BDECD8" transform="translate(95,53)"/>
<path d="M0 0 C0.99 0.33 1.98 0.66 3 1 C3.66 4.3 4.32 7.6 5 11 C3.68 11 2.36 11 1 11 C0.06576355 7.98968256 -0.04449911 7.13349732 1 4 C0.61067144 1.85744207 0.61067144 1.85744207 0 0 Z " fill="#C2EDDB" transform="translate(89,53)"/>
<path d="M0 0 C0.66 0 1.32 0 2 0 C2 1.65 2 3.3 2 5 C-0.31 5 -2.62 5 -5 5 C-5 4.01 -5 3.02 -5 2 C-3.68 2 -2.36 2 -1 2 C-0.67 1.34 -0.34 0.68 0 0 Z " fill="#D9F4E8" transform="translate(96,66)"/>
</svg>
