<?xml version="1.0" encoding="UTF-8"?>
<svg xmlns="http://www.w3.org/2000/svg" xmlns:xlink="http://www.w3.org/1999/xlink" width="40px" height="40px" viewBox="0 0 40 40" version="1.1">
<g id="surface1">
<path style=" stroke:none;fill-rule:nonzero;fill:rgb(26.274511%,62.7451%,27.843139%);fill-opacity:1;" d="M 22.8125 1.40625 C 22.875 1.417969 22.9375 1.425781 23.003906 1.4375 C 24.960938 1.773438 26.835938 2.363281 28.597656 3.28125 C 28.695312 3.332031 28.796875 3.382812 28.898438 3.429688 C 29.878906 3.917969 30.820312 4.566406 31.667969 5.261719 C 31.714844 5.296875 31.761719 5.335938 31.8125 5.375 C 32.148438 5.648438 32.46875 5.9375 32.785156 6.230469 C 32.914062 6.347656 33.039062 6.457031 33.167969 6.570312 C 33.359375 6.746094 33.535156 6.925781 33.703125 7.125 C 33.804688 7.242188 33.910156 7.351562 34.015625 7.464844 C 34.414062 7.886719 34.761719 8.335938 35.105469 8.800781 C 35.128906 8.832031 35.152344 8.863281 35.175781 8.898438 C 38.117188 12.863281 39.3125 17.941406 38.59375 22.8125 C 38.074219 26.042969 36.808594 29.117188 34.738281 31.667969 C 34.683594 31.738281 34.683594 31.738281 34.625 31.8125 C 34.351562 32.148438 34.0625 32.46875 33.769531 32.785156 C 33.652344 32.914062 33.542969 33.039062 33.429688 33.167969 C 33.253906 33.359375 33.074219 33.535156 32.875 33.703125 C 32.757812 33.804688 32.648438 33.910156 32.535156 34.015625 C 32.113281 34.414062 31.664062 34.761719 31.199219 35.105469 C 31.167969 35.128906 31.136719 35.152344 31.101562 35.175781 C 28.722656 36.941406 25.96875 38.050781 23.054688 38.554688 C 23.007812 38.5625 22.960938 38.570312 22.914062 38.578125 C 21.953125 38.734375 20.996094 38.769531 20.023438 38.765625 C 19.929688 38.765625 19.929688 38.765625 19.835938 38.765625 C 18.941406 38.761719 18.066406 38.746094 17.1875 38.59375 C 17.125 38.582031 17.0625 38.574219 17 38.5625 C 15.234375 38.265625 13.542969 37.75 11.925781 36.980469 C 11.882812 36.957031 11.835938 36.9375 11.789062 36.914062 C 10.03125 36.078125 8.332031 34.933594 6.96875 33.53125 C 6.871094 33.429688 6.871094 33.429688 6.738281 33.328125 C 6.585938 33.207031 6.46875 33.066406 6.34375 32.921875 C 6.257812 32.820312 6.167969 32.730469 6.074219 32.640625 C 5.859375 32.429688 5.675781 32.199219 5.488281 31.964844 C 5.4375 31.902344 5.386719 31.835938 5.335938 31.773438 C 4.417969 30.636719 3.644531 29.394531 3.019531 28.074219 C 3.003906 28.035156 2.984375 27.996094 2.964844 27.957031 C 2.1875 26.320312 1.707031 24.597656 1.40625 22.8125 C 1.398438 22.757812 1.386719 22.703125 1.378906 22.648438 C 1.085938 20.910156 1.101562 18.925781 1.40625 17.1875 C 1.417969 17.125 1.425781 17.0625 1.4375 16.996094 C 1.785156 14.957031 2.421875 13.027344 3.386719 11.199219 C 3.414062 11.140625 3.414062 11.140625 3.445312 11.078125 C 3.953125 10.101562 4.570312 9.191406 5.261719 8.332031 C 5.296875 8.285156 5.335938 8.238281 5.375 8.1875 C 5.648438 7.847656 5.9375 7.53125 6.230469 7.214844 C 6.347656 7.085938 6.457031 6.960938 6.570312 6.832031 C 6.746094 6.640625 6.925781 6.464844 7.125 6.296875 C 7.242188 6.195312 7.351562 6.089844 7.464844 5.984375 C 7.886719 5.585938 8.335938 5.238281 8.800781 4.894531 C 8.832031 4.871094 8.863281 4.847656 8.898438 4.824219 C 11.335938 3.015625 14.191406 1.875 17.1875 1.40625 C 17.261719 1.394531 17.261719 1.394531 17.339844 1.378906 C 19.085938 1.09375 21.070312 1.101562 22.8125 1.40625 Z M 22.8125 1.40625 "/>
<path style=" stroke:none;fill-rule:nonzero;fill:rgb(99.607843%,99.607843%,99.607843%);fill-opacity:1;" d="M 13.230469 10.9375 C 15.570312 10.933594 15.570312 10.933594 17.957031 10.929688 C 18.691406 10.925781 18.691406 10.925781 19.441406 10.921875 C 20.046875 10.921875 20.046875 10.921875 20.332031 10.921875 C 20.527344 10.921875 20.722656 10.921875 20.917969 10.921875 C 21.171875 10.917969 21.421875 10.917969 21.671875 10.917969 C 21.765625 10.917969 21.855469 10.917969 21.949219 10.917969 C 23.53125 10.910156 25.058594 11.234375 26.234375 12.359375 C 27.328125 13.503906 27.75 14.859375 27.722656 16.417969 C 27.683594 17.617188 27.175781 18.820312 26.3125 19.652344 C 25.929688 19.988281 25.46875 20.226562 25 20.417969 C 25.074219 20.453125 25.074219 20.453125 25.152344 20.492188 C 25.59375 20.710938 25.957031 20.945312 26.300781 21.300781 C 26.332031 21.332031 26.363281 21.359375 26.390625 21.390625 C 26.789062 21.8125 26.972656 22.359375 27.082031 22.917969 C 27.097656 22.984375 27.109375 23.050781 27.125 23.117188 C 27.222656 23.667969 27.253906 24.214844 27.257812 24.777344 C 27.257812 24.8125 27.257812 24.847656 27.261719 24.886719 C 27.261719 25.1875 27.261719 25.488281 27.261719 25.789062 C 27.261719 26.015625 27.261719 26.242188 27.265625 26.464844 C 27.265625 26.570312 27.265625 26.675781 27.265625 26.777344 C 27.269531 27.320312 27.34375 27.90625 27.707031 28.332031 C 27.808594 28.425781 27.910156 28.507812 28.019531 28.59375 C 28.019531 28.75 28.019531 28.902344 28.019531 29.0625 C 26.628906 29.0625 25.238281 29.0625 23.800781 29.0625 C 23.558594 28.15625 23.4375 27.382812 23.417969 26.453125 C 23.414062 26.347656 23.410156 26.242188 23.410156 26.136719 C 23.402344 25.882812 23.394531 25.625 23.390625 25.371094 C 23.398438 23.886719 23.398438 23.886719 22.804688 22.570312 C 22.039062 21.953125 21.046875 21.964844 20.109375 21.957031 C 20.027344 21.957031 19.945312 21.957031 19.863281 21.953125 C 19.566406 21.953125 19.265625 21.949219 18.964844 21.945312 C 17.957031 21.9375 17.957031 21.9375 16.925781 21.925781 C 16.925781 24.28125 16.925781 26.636719 16.925781 29.0625 C 15.707031 29.0625 14.488281 29.0625 13.230469 29.0625 C 13.230469 23.082031 13.230469 17.101562 13.230469 10.9375 Z M 13.230469 10.9375 "/>
<path style=" stroke:none;fill-rule:nonzero;fill:rgb(26.666668%,62.7451%,28.235295%);fill-opacity:1;" d="M 16.925781 14.0625 C 17.703125 14.058594 18.484375 14.058594 19.285156 14.054688 C 19.527344 14.054688 19.773438 14.054688 20.023438 14.054688 C 20.324219 14.050781 20.324219 14.050781 20.46875 14.050781 C 20.566406 14.050781 20.664062 14.050781 20.761719 14.050781 C 21.714844 14.046875 22.644531 14.054688 23.375 14.761719 C 23.9375 15.421875 23.953125 16.261719 23.90625 17.082031 C 23.886719 17.25 23.855469 17.394531 23.800781 17.550781 C 23.789062 17.589844 23.773438 17.628906 23.761719 17.667969 C 23.582031 18.121094 23.261719 18.5 22.8125 18.699219 C 22.257812 18.878906 21.71875 18.96875 21.136719 18.964844 C 21.089844 18.964844 21.042969 18.964844 20.996094 18.964844 C 20.847656 18.964844 20.699219 18.964844 20.546875 18.964844 C 20.457031 18.964844 20.363281 18.964844 20.269531 18.964844 C 19.929688 18.964844 19.585938 18.960938 19.246094 18.960938 C 18.480469 18.960938 17.714844 18.960938 16.925781 18.957031 C 16.925781 17.34375 16.925781 15.726562 16.925781 14.0625 Z M 16.925781 14.0625 "/>
<path style=" stroke:none;fill-rule:nonzero;fill:rgb(45.09804%,74.117649%,45.882353%);fill-opacity:1;" d="M 7.550781 5.886719 C 7.585938 5.902344 7.621094 5.917969 7.65625 5.9375 C 7.210938 6.382812 6.761719 6.832031 6.300781 7.292969 C 6.269531 7.273438 6.234375 7.257812 6.199219 7.238281 C 6.820312 6.550781 6.820312 6.550781 7.148438 6.277344 C 7.292969 6.152344 7.421875 6.019531 7.550781 5.886719 Z M 7.550781 5.886719 "/>
</g>
</svg>
